<svg xmlns="http://www.w3.org/2000/svg" width="220.8" height="80.397" viewBox="0 0 220.8 80.397">
  <g id="Group_38" data-name="Group 38" transform="translate(-240 -39.864)">
    <rect id="Rectangle_35" data-name="Rectangle 35" width="220.8" height="30.758" rx="5" transform="translate(240 89.503)" fill="#dc0d15"/>
    <path id="Path_311" data-name="Path 311" d="M40.983-3.663A22.148,22.148,0,0,1,24.825,2.7,22.158,22.158,0,0,1,8.7-3.6,20.748,20.748,0,0,1,2.241-19.04v-.12a20.848,20.848,0,0,1,6.517-15.5,22.249,22.249,0,0,1,16.188-6.367,22.158,22.158,0,0,1,16.128,6.307A20.748,20.748,0,0,1,47.53-19.28v.12A20.8,20.8,0,0,1,40.983-3.663ZM17.2-11.111a10.112,10.112,0,0,0,7.748,3.3A9.875,9.875,0,0,0,32.6-11.081a11.413,11.413,0,0,0,2.973-7.959v-.12a11.5,11.5,0,0,0-3.033-8.019,9.976,9.976,0,0,0-7.718-3.334,9.968,9.968,0,0,0-7.688,3.274,11.348,11.348,0,0,0-3,7.959v.12A11.542,11.542,0,0,0,17.2-11.111ZM53.537,1.863V-40.183H73.418q9.19,0,13.695,4.5a13.238,13.238,0,0,1,3.724,9.791v.12q0,9.31-8.649,12.974L92.219,1.863H78.824L70.355-10.871H65.189V1.863ZM65.189-20h7.748a7.061,7.061,0,0,0,4.6-1.351,4.452,4.452,0,0,0,1.652-3.634v-.12A4.445,4.445,0,0,0,77.5-28.861a7.425,7.425,0,0,0-4.625-1.291H65.189ZM96.723,1.863V-40.183h11.653v17.059l14.536-17.059h13.755L120.75-22.163,137.207,1.863H123.272L112.641-13.754l-4.265,4.685V1.863Zm60.005.781q-9.19,0-14.3-4.805t-5.106-14.416V-40.183H149.1v23.365q0,4.445,2.072,6.7a7.331,7.331,0,0,0,5.676,2.252,7.569,7.569,0,0,0,5.736-2.162q2.072-2.162,2.072-6.487V-40.183H176.43v23.305q0,9.851-5.2,14.686T156.729,2.644Zm26.609-.781V-40.183h10.872l17.3,22.224V-40.183h11.533V1.863H212.89L194.87-21.2V1.863Z" transform="translate(237.759 80.888)" fill="#0d4b9f"/>
    <text id="EĞİTİM_KURUMLARI" data-name="EĞİTİM KURUMLARI" transform="translate(248.124 112.617)" fill="#fff" font-size="20.771" font-family="Gotham-Medium, Gotham" font-weight="500"><tspan x="0" y="0" letter-spacing="-0.019em">E</tspan><tspan y="0" letter-spacing="-0.02em">Ğ</tspan><tspan y="0" letter-spacing="-0.019em">İTİ</tspan><tspan y="0" letter-spacing="-0.02em">M</tspan><tspan y="0" letter-spacing="-0.019em"> </tspan><tspan y="0" letter-spacing="-0.034em">K</tspan><tspan y="0" letter-spacing="-0.019em">URU</tspan><tspan y="0" letter-spacing="-0.02em">M</tspan><tspan y="0" letter-spacing="-0.019em">L</tspan><tspan y="0" letter-spacing="-0.02em">A</tspan><tspan y="0" letter-spacing="-0.019em">R</tspan><tspan y="0">I</tspan></text>
    <text id="EĞİTİM_KURUMLARI-2" data-name="EĞİTİM KURUMLARI" transform="translate(248.124 112.617)" fill="#fff" font-size="20.771" font-family="Gotham-Medium, Gotham" font-weight="500"><tspan x="0" y="0" letter-spacing="-0.019em">E</tspan><tspan y="0" letter-spacing="-0.02em">Ğ</tspan><tspan y="0" letter-spacing="-0.019em">İTİ</tspan><tspan y="0" letter-spacing="-0.02em">M</tspan><tspan y="0" letter-spacing="-0.019em"> </tspan><tspan y="0" letter-spacing="-0.034em">K</tspan><tspan y="0" letter-spacing="-0.019em">URU</tspan><tspan y="0" letter-spacing="-0.02em">M</tspan><tspan y="0" letter-spacing="-0.019em">L</tspan><tspan y="0" letter-spacing="-0.02em">A</tspan><tspan y="0" letter-spacing="-0.019em">R</tspan><tspan y="0">I</tspan></text>
  </g>
</svg>
